<?xml version="1.0" encoding="UTF-8" standalone="no"?>
<!-- Created with Inkscape (http://www.inkscape.org/) -->

<svg
   xmlns:dc="http://purl.org/dc/elements/1.1/"
   xmlns:cc="http://creativecommons.org/ns#"
   xmlns:rdf="http://www.w3.org/1999/02/22-rdf-syntax-ns#"
   xmlns:svg="http://www.w3.org/2000/svg"
   xmlns="http://www.w3.org/2000/svg"
   xmlns:sodipodi="http://sodipodi.sourceforge.net/DTD/sodipodi-0.dtd"
   xmlns:inkscape="http://www.inkscape.org/namespaces/inkscape"
   width="388.49069"
   height="305.12283"
   id="svg2"
   version="1.1"
   inkscape:version="0.48.2 r9819"
   sodipodi:docname="Nouveau document 1">
  <defs
     id="defs4" />
  <sodipodi:namedview
     id="base"
     pagecolor="#ffffff"
     bordercolor="#666666"
     borderopacity="1.0"
     inkscape:pageopacity="0.0"
     inkscape:pageshadow="2"
     inkscape:zoom="0.70710678"
     inkscape:cx="180.76107"
     inkscape:cy="264.96675"
     inkscape:document-units="px"
     inkscape:current-layer="layer1"
     showgrid="false"
     showguides="false"
     fit-margin-top="5"
     fit-margin-bottom="5"
     fit-margin-left="5"
     fit-margin-right="5"
     inkscape:window-width="1366"
     inkscape:window-height="706"
     inkscape:window-x="-8"
     inkscape:window-y="-8"
     inkscape:window-maximized="1">
    <inkscape:grid
       type="xygrid"
       id="grid3853"
       empspacing="5"
       visible="true"
       enabled="true"
       snapvisiblegridlinesonly="true" />
  </sodipodi:namedview>
  <metadata
     id="metadata7">
    <rdf:RDF>
      <cc:Work
         rdf:about="">
        <dc:format>image/svg+xml</dc:format>
        <dc:type
           rdf:resource="http://purl.org/dc/dcmitype/StillImage" />
        <dc:title></dc:title>
      </cc:Work>
    </rdf:RDF>
  </metadata>
  <g
     inkscape:label="Calque 1"
     inkscape:groupmode="layer"
     id="layer1"
     transform="translate(-169.10743,-360.76132)">
    <g
       inkscape:export-filename="C:\Users\Alexandre\Desktop\Rafa Bull.png"
       inkscape:export-ydpi="5000"
       inkscape:export-xdpi="5000"
       id="g3027"
       transform="matrix(1.920104,0,0,1.920104,181.70438,124.98698)"
       style="fill:#1a1a1a">
      <g
         id="g3855"
         transform="translate(-5,113.5)"
         style="fill:#1a1a1a">
        <path
           sodipodi:nodetypes="cscscscsscccsssscccsccc"
           inkscape:connector-curvature="0"
           id="path3023"
           d="m 78.291582,122.29471 c -3.590372,-8.15128 -6.946479,-15.93206 -7.458018,-17.2906 -0.511538,-1.35855 -0.969443,-2.50983 -1.017562,-2.5584 -0.04812,-0.0486 -1.706238,0.864 -3.684704,2.02793 -4.878981,2.87032 -8.147151,4.63604 -8.147151,4.63604 0,0 -1.776366,-3.43653 -7.556706,-17.486317 -3.963364,-9.633421 -5.514287,-13.690937 -5.514287,-13.690937 0,0 -2.581554,-0.600616 -8.418246,-1.847807 C 30.848487,74.878087 28.855795,74.366904 25.247537,73.19935 4.7632397,66.57107 -3.3381706,55.572682 3.3291563,43.443187 17.00473,23.74569 46.256381,14.539391 70.808943,11.896813 66.665601,14.15141 58.495386,18.363273 53.559415,20.661675 40.775627,27.049615 34.06694,31.3301 29.532098,35.992332 25.54139,40.095144 22.385496,44.302177 23.912,47.42224 c 1.874773,3.831897 8.401639,6.655487 18.861391,8.159628 3.725909,0.535795 6.633364,0.792044 15.055766,1.326945 3.234638,0.205429 5.756689,0.369622 6.073307,0.393395 2.996286,6.803567 4.959119,11.978229 8.629951,19.464143 5.672155,-3.566579 8.163166,-5.162013 14.237679,-9.102376 0,0 1.109457,8.236034 5.05155,41.692185 2.638622,22.39371 4.02033,34.9668 4.458201,40.56821 -0.04721,5.43224 1.321278,15.67363 1.321278,15.67363 0,0 -19.282671,-43.24229 -19.309541,-43.30329 z"
           style="fill:#1a1a1a;fill-opacity:1;stroke:none" />
        <path
           sodipodi:nodetypes="cscscscsscccsssscccsccc"
           inkscape:connector-curvature="0"
           id="path3023-7"
           d="m 120.91526,122.2944 c 3.59038,-8.15128 6.94648,-15.93206 7.45802,-17.2906 0.51154,-1.35855 0.96944,-2.50983 1.01756,-2.5584 0.0481,-0.0486 1.70624,0.864 3.68471,2.02793 4.87898,2.87032 8.14715,4.63604 8.14715,4.63604 0,0 1.77636,-3.43653 7.5567,-17.486311 3.96337,-9.633417 5.51429,-13.690937 5.51429,-13.690937 0,0 2.58156,-0.60061 8.41825,-1.8478 5.64642,-1.20654 7.63911,-1.71772 11.24737,-2.88527 20.48429,-6.62828 28.5857,-17.62667 21.91837,-29.75617 -13.67557,-19.69749 -42.92722,-28.90379 -67.47978,-31.54637 4.14334,2.2546 12.31356,6.46646 17.24953,8.76486 12.78379,6.38794 19.49248,10.66843 24.02732,15.33066 3.99071,4.10281 7.1466,8.30984 5.6201,11.42991 -1.87478,3.83189 -8.40164,6.65548 -18.8614,8.15963 -3.7259,0.53579 -6.63336,0.79204 -15.05576,1.32694 -3.23464,0.20543 -5.75669,0.36962 -6.07331,0.3934 -2.99628,6.80356 -4.95912,11.97822 -8.62995,19.46414 -5.67215,-3.56658 -8.16318,-5.16201 -14.23769,-9.10238 0,0 -1.10946,8.23604 -5.05155,41.692178 -2.63862,22.39371 -4.02033,34.9668 -4.4582,40.56821 0.0472,5.43224 -1.32128,15.67363 -1.32128,15.67363 0,0 19.28268,-43.24229 19.30955,-43.30329 z"
           style="fill:#1a1a1a;fill-opacity:1;stroke:none" />
      </g>
    </g>
  </g>
</svg>
